<?xml version="1.0" encoding="utf-8"?>
<!-- Generator: Adobe Illustrator 26.5.0, SVG Export Plug-In . SVG Version: 6.00 Build 0)  -->
<svg version="1.1" id="图层_1" xmlns="http://www.w3.org/2000/svg" xmlns:xlink="http://www.w3.org/1999/xlink" x="0px" y="0px"
	 viewBox="0 0 236.8 109.9" style="enable-background:new 0 0 236.8 109.9;" xml:space="preserve">
<style type="text/css">
	.st0{fill:#EBAEC9;}
	.st1{fill:#FFFFFF;}
	.st2{fill:#70A7CE;}
	.st3{fill:#595857;}
</style>
<g>
	<g>
		<path class="st0" d="M74.2,3.5C69.4,1.7,64.3,0.5,59,0.1C57.7,0,56.3,0,54.9,0C31.9,0,12.2,14.2,4,34.3c-1.9,4.8-3.2,9.9-3.7,15.2
			C0.1,51.3,0,53.1,0,54.9c0,22.8,13.9,42.4,33.7,50.7c4.8,2,9.9,3.4,15.2,3.9c2,0.2,4,0.3,6,0.3c23.5,0,43.6-14.8,51.4-35.5
			c1.8-4.8,3-9.9,3.4-15.3c0.1-1.4,0.2-2.8,0.2-4.2C109.9,31.4,95.1,11.3,74.2,3.5z"/>
		<path class="st1" d="M35.2,19.4c-7.1,0-12.8,5.7-12.8,12.8v45.5c0,7.1,5.7,12.8,12.8,12.8c7.1,0,12.8-5.7,12.8-12.8V32.2
			C48.1,25.1,42.3,19.4,35.2,19.4z"/>
		<path class="st0" d="M41.6,48.5c-1.4,0-2.4,1.1-2.4,2.4v8c0,1.4,1.1,2.4,2.4,2.4S44,60.3,44,59v-8C44,49.6,42.9,48.5,41.6,48.5z"
			/>
		<path class="st2" d="M87.4,33.4c-0.2-1.7-0.7-3.3-1.4-4.9c-0.4-0.8-1.2-1.3-2.1-1.3h-4.5v-4.5c0-0.9-0.5-1.7-1.3-2.1
			c-1.5-0.7-3.2-1.2-4.9-1.4c-9.7-1.1-18,6.5-18,16v12.7c0,1.9,1.5,3.5,3.5,3.5h12.7C80.9,51.4,88.4,43.1,87.4,33.4z"/>
		<path class="st1" d="M71.3,58.2H59.4c-2.3,0-4.2,1.9-4.2,4.2v11.9c0,9.2,7.8,16.7,17.2,16.1c8-0.5,14.6-7,15.1-15.1
			C88,66,80.6,58.2,71.3,58.2z"/>
	</g>
	<g>
		<path class="st3" d="M156.2,25.1c-1.9,0-3.5,1.6-3.5,3.5v18c0,1.9,1.6,3.5,3.5,3.5s3.5-1.6,3.5-3.5v-18
			C159.7,26.7,158.1,25.1,156.2,25.1z"/>
		<path class="st3" d="M142.9,40.3l-2.9,3.5c-0.4,0.5-0.4,1.1,0,1.6l2.6,3.3c1.2,1.5,3.4,1.9,4.9,0.7c1.6-1.2,1.9-3.4,0.6-4.9
			l-3.3-4.2C144.4,39.6,143.4,39.6,142.9,40.3z"/>
		<path class="st3" d="M148.6,24.5c-1.5-1.2-3.7-1-4.9,0.5l-9.8,11.9V22.6c0-1.9-1.6-3.5-3.5-3.5s-3.5,1.6-3.5,3.5v24l0,0
			c0,0.1,0,0.2,0,0.3c0,0.1,0,0.1,0,0.2c0,0,0,0.1,0,0.1c0,0.1,0,0.1,0,0.2c0,0,0,0.1,0,0.1c0,0.1,0,0.1,0.1,0.2c0,0,0,0.1,0,0.1
			c0,0.1,0,0.1,0.1,0.2c0,0,0,0.1,0.1,0.1s0,0.1,0.1,0.1c0,0,0.1,0.1,0.1,0.2c0,0,0.1,0.1,0.1,0.1c0,0,0.1,0.1,0.1,0.1
			c0,0,0.1,0.1,0.1,0.1c0,0,0.1,0.1,0.1,0.1c0.2,0.2,0.3,0.3,0.5,0.4c0,0,0.1,0,0.1,0c0.1,0,0.1,0.1,0.2,0.1c0,0,0.1,0,0.1,0.1
			c0.1,0,0.1,0.1,0.2,0.1c0,0,0.1,0,0.1,0.1c0.1,0,0.1,0,0.2,0.1c0.1,0,0.1,0,0.2,0c0,0,0.1,0,0.2,0c0.1,0,0.1,0,0.2,0
			c0,0,0.1,0,0.1,0c0.1,0,0.2,0,0.3,0c0,0,0,0,0,0l0,0c0.1,0,0.2,0,0.3,0c0.1,0,0.1,0,0.2,0c0,0,0.1,0,0.1,0c0.1,0,0.1,0,0.2,0
			c0,0,0.1,0,0.1,0c0.1,0,0.1,0,0.2-0.1c0,0,0.1,0,0.1,0c0,0,0.1,0,0.2-0.1c0,0,0.1,0,0.1-0.1c0,0,0.1,0,0.1-0.1
			c0,0,0.1-0.1,0.2-0.1c0,0,0.1,0,0.1-0.1c0,0,0.1-0.1,0.2-0.1c0,0,0.1-0.1,0.1-0.1c0,0,0.1-0.1,0.1-0.1c0.1-0.1,0.2-0.2,0.2-0.2
			l0,0l16-19.4C150.3,27.9,150.1,25.7,148.6,24.5z"/>
		<path class="st3" d="M213.1,24.5c-1.5-1.2-3.7-1-4.9,0.5l-9.8,11.9V22.6c0-1.9-1.6-3.5-3.5-3.5s-3.5,1.6-3.5,3.5v24l0,0
			c0,0.1,0,0.2,0,0.3c0,0.1,0,0.1,0,0.2c0,0,0,0.1,0,0.1c0,0.1,0,0.1,0,0.2c0,0,0,0.1,0,0.1c0,0.1,0,0.1,0.1,0.2c0,0,0,0.1,0,0.1
			c0,0.1,0,0.1,0.1,0.2c0,0,0,0.1,0.1,0.1s0,0.1,0.1,0.1c0,0,0.1,0.1,0.1,0.2c0,0,0.1,0.1,0.1,0.1c0,0,0.1,0.1,0.1,0.1
			c0,0,0.1,0.1,0.1,0.1c0,0,0.1,0.1,0.1,0.1c0.2,0.2,0.3,0.3,0.5,0.4c0,0,0.1,0,0.1,0c0.1,0,0.1,0.1,0.2,0.1c0,0,0.1,0,0.1,0.1
			c0.1,0,0.1,0.1,0.2,0.1c0,0,0.1,0,0.1,0.1c0.1,0,0.1,0,0.2,0.1c0.1,0,0.1,0,0.2,0c0,0,0.1,0,0.2,0c0.1,0,0.1,0,0.2,0
			c0,0,0.1,0,0.1,0c0.1,0,0.2,0,0.3,0c0,0,0,0,0,0l0,0c0.1,0,0.2,0,0.3,0c0.1,0,0.1,0,0.2,0c0,0,0.1,0,0.1,0c0.1,0,0.1,0,0.2,0
			c0,0,0.1,0,0.1,0c0.1,0,0.1,0,0.2-0.1c0,0,0.1,0,0.1,0c0,0,0.1,0,0.2-0.1c0,0,0.1,0,0.1-0.1c0,0,0.1,0,0.1-0.1
			c0,0,0.1-0.1,0.2-0.1c0,0,0.1,0,0.1-0.1c0,0,0.1-0.1,0.2-0.1c0,0,0.1-0.1,0.1-0.1c0,0,0.1-0.1,0.1-0.1c0.1-0.1,0.2-0.2,0.2-0.2
			l0,0l4.9-6l4.7,5.9c1.2,1.5,3.4,1.8,4.9,0.6c1.5-1.2,1.8-3.4,0.6-4.9l-5.7-7.1l6.5-8C214.8,27.9,214.6,25.7,213.1,24.5z"/>
		<path class="st3" d="M156.2,15.9c-1.9,0-3.5,1.6-3.5,3.5s1.6,3.5,3.5,3.5s3.5-1.6,3.5-3.5C159.7,17.5,158.1,15.9,156.2,15.9z"/>
		<path class="st3" d="M220.3,25.1c-1.9,0-3.5,1.6-3.5,3.5v18c0,1.9,1.6,3.5,3.5,3.5s3.5-1.6,3.5-3.5v-18
			C223.8,26.7,222.2,25.1,220.3,25.1z"/>
		<path class="st3" d="M220.3,15.9c-1.9,0-3.5,1.6-3.5,3.5s1.6,3.5,3.5,3.5s3.5-1.6,3.5-3.5S222.2,15.9,220.3,15.9z"/>
		<path class="st3" d="M230.6,25.1c-1.9,0-3.5,1.6-3.5,3.5v18c0,1.9,1.6,3.5,3.5,3.5s3.5-1.6,3.5-3.5v-18
			C234.1,26.7,232.6,25.1,230.6,25.1z"/>
		<path class="st3" d="M230.6,15.9c-1.9,0-3.5,1.6-3.5,3.5s1.6,3.5,3.5,3.5s3.5-1.6,3.5-3.5S232.6,15.9,230.6,15.9z"/>
		<path class="st3" d="M175.1,25.1c-6.9,0-12.5,5.6-12.5,12.5s5.6,12.5,12.5,12.5s12.5-5.6,12.5-12.5S182,25.1,175.1,25.1z
			 M175.1,43.5c-3.2,0-5.9-2.6-5.9-5.9s2.6-5.9,5.9-5.9s5.9,2.6,5.9,5.9S178.4,43.5,175.1,43.5z"/>
		<g>
			<path class="st3" d="M215,86.2c-1,0-1.9,0.4-2.7,1.1s-1.1,1.6-1.1,2.7s0.4,1.9,1.1,2.7s1.6,1.1,2.7,1.1s1.9-0.4,2.7-1.1
				s1.1-1.6,1.1-2.7s-0.4-1.9-1.1-2.7S216,86.2,215,86.2z"/>
			<path class="st3" d="M224,86.2c-1,0-1.9,0.4-2.7,1.1s-1.1,1.6-1.1,2.7s0.4,1.9,1.1,2.7s1.6,1.1,2.7,1.1s1.9-0.4,2.7-1.1
				s1.1-1.6,1.1-2.7s-0.4-1.9-1.1-2.7S225,86.2,224,86.2z"/>
			<path class="st3" d="M235.7,87.3c-0.7-0.7-1.6-1.1-2.7-1.1s-1.9,0.4-2.7,1.1s-1.1,1.6-1.1,2.7s0.4,1.9,1.1,2.7s1.6,1.1,2.7,1.1
				s1.9-0.4,2.7-1.1s1.1-1.6,1.1-2.7C236.8,88.9,236.4,88.1,235.7,87.3z"/>
			<path class="st3" d="M202.3,62.6c-1.9,0-3.5,1.6-3.5,3.5v4.2c-1.7-0.8-3.5-1.3-5.5-1.3c-6.9,0-12.5,5.6-12.5,12.5
				S186.4,94,193.3,94c6.5,0,11.9-5,12.5-11.4c0-0.2,0-0.4,0-0.6v-0.5l0,0l0,0V66.1C205.8,64.1,204.3,62.6,202.3,62.6z M193.3,87.4
				c-3.2,0-5.9-2.6-5.9-5.9s2.6-5.9,5.9-5.9s5.9,2.6,5.9,5.9S196.6,87.4,193.3,87.4z"/>
			<path class="st3" d="M148.9,73.2c-2.4-2.9-6.1-4.6-10.2-4.4c-6.4,0.3-11.6,5.7-11.8,12.1c-0.2,7.1,5.5,12.9,12.5,12.9l0,0
				c0.7,0,1.3-0.6,1.3-1.3v-4c0-0.7-0.6-1.3-1.3-1.3c-1.3,0-2.6-0.4-4-1.6c-0.5-0.5-1-1-1.3-1.7c-1.9-4.3,1.2-8.5,5.3-8.5
				c1.9,0,3.6,0.9,4.7,2.4c0.5,0.7,0.8,1.6,0.8,2.5v9.8c0,1.9,1.5,3.6,3.4,3.6c2,0,3.5-1.5,3.5-3.5v-9c0,0,0,0,0,0l0,0
				C151.9,78.2,150.8,75.4,148.9,73.2z"/>
			<path class="st3" d="M166.4,67.3c-3.1,0-5.8,1.1-8,3.3c-2.2,2.2-3.3,4.9-3.3,8V90c0,1,0.4,1.9,1.1,2.7s1.6,1.1,2.7,1.1
				s1.9-0.4,2.7-1.1s1.1-1.6,1.1-2.7V78.6c0-1,0.4-1.9,1.1-2.7s1.6-1.1,2.7-1.1s1.9,0.4,2.7,1.1s1.1,1.6,1.1,2.7V90
				c0,1,0.4,1.9,1.1,2.7s1.6,1.1,2.7,1.1s1.9-0.4,2.7-1.1s1.1-1.6,1.1-2.7V78.6c0-3.1-1.1-5.8-3.3-8
				C172.2,68.4,169.5,67.3,166.4,67.3z"/>
		</g>
	</g>
</g>
</svg>
